<mxfile host="app.diagrams.net" agent="Mozilla/5.0 (Windows NT 10.0; Win64; x64) AppleWebKit/537.36 (KHTML, like Gecko) Chrome/128.0.0.0 Safari/537.36 Edg/128.0.0.0" version="24.7.7">
  <diagram name="Page-1" id="LTOiaPsmX0VkIE57tR0W">
    <mxGraphModel dx="700" dy="407" grid="1" gridSize="10" guides="1" tooltips="1" connect="1" arrows="1" fold="1" page="1" pageScale="1" pageWidth="1169" pageHeight="1654" math="0" shadow="0">
      <root>
        <mxCell id="0" />
        <mxCell id="1" parent="0" />
        <mxCell id="-ewhu1UtHAXk975m_A8Y-3" value="" style="edgeStyle=orthogonalEdgeStyle;rounded=0;orthogonalLoop=1;jettySize=auto;html=1;" edge="1" parent="1" source="-ewhu1UtHAXk975m_A8Y-1" target="-ewhu1UtHAXk975m_A8Y-2">
          <mxGeometry relative="1" as="geometry" />
        </mxCell>
        <mxCell id="-ewhu1UtHAXk975m_A8Y-1" value="Mulai" style="strokeWidth=2;html=1;shape=mxgraph.flowchart.start_1;whiteSpace=wrap;" vertex="1" parent="1">
          <mxGeometry x="100" y="50" width="100" height="60" as="geometry" />
        </mxCell>
        <mxCell id="-ewhu1UtHAXk975m_A8Y-2" value="Menampilkan&lt;div&gt;Landing Page&lt;/div&gt;" style="shape=parallelogram;html=1;strokeWidth=2;perimeter=parallelogramPerimeter;whiteSpace=wrap;rounded=1;arcSize=12;size=0.23;" vertex="1" parent="1">
          <mxGeometry x="85" y="160" width="130" height="70" as="geometry" />
        </mxCell>
        <mxCell id="-ewhu1UtHAXk975m_A8Y-4" value="Apakah" style="rounded=1;whiteSpace=wrap;html=1;absoluteArcSize=1;arcSize=14;strokeWidth=2;" vertex="1" parent="1">
          <mxGeometry x="100" y="260" width="100" height="100" as="geometry" />
        </mxCell>
      </root>
    </mxGraphModel>
  </diagram>
</mxfile>
